<mxfile host="app.diagrams.net" agent="Mozilla/5.0 (Windows NT 10.0; Win64; x64) AppleWebKit/537.36 (KHTML, like Gecko) Chrome/129.0.0.0 Safari/537.36" version="24.7.16">
  <diagram name="Page-1" id="2MA3hFYjlH-d_A7RGotl">
    <mxGraphModel dx="1050" dy="580" grid="1" gridSize="10" guides="1" tooltips="1" connect="1" arrows="1" fold="1" page="1" pageScale="1" pageWidth="850" pageHeight="1100" math="0" shadow="0">
      <root>
        <mxCell id="0" />
        <mxCell id="1" parent="0" />
        <mxCell id="UDzx1LGtE0kOY_WkI4bh-3" value="" style="edgeStyle=orthogonalEdgeStyle;rounded=0;orthogonalLoop=1;jettySize=auto;html=1;fontSize=14;" edge="1" parent="1" source="UDzx1LGtE0kOY_WkI4bh-1" target="UDzx1LGtE0kOY_WkI4bh-2">
          <mxGeometry relative="1" as="geometry" />
        </mxCell>
        <mxCell id="UDzx1LGtE0kOY_WkI4bh-1" value="START" style="strokeWidth=2;html=1;shape=mxgraph.flowchart.terminator;whiteSpace=wrap;fontSize=14;" vertex="1" parent="1">
          <mxGeometry x="315" y="80" width="110" height="50" as="geometry" />
        </mxCell>
        <mxCell id="UDzx1LGtE0kOY_WkI4bh-5" value="" style="edgeStyle=orthogonalEdgeStyle;rounded=0;orthogonalLoop=1;jettySize=auto;html=1;fontSize=14;" edge="1" parent="1" source="UDzx1LGtE0kOY_WkI4bh-2" target="UDzx1LGtE0kOY_WkI4bh-4">
          <mxGeometry relative="1" as="geometry" />
        </mxCell>
        <mxCell id="UDzx1LGtE0kOY_WkI4bh-2" value="input char_code" style="shape=parallelogram;html=1;strokeWidth=2;perimeter=parallelogramPerimeter;whiteSpace=wrap;rounded=1;arcSize=12;size=0.23;fontSize=14;" vertex="1" parent="1">
          <mxGeometry x="300" y="170" width="140" height="50" as="geometry" />
        </mxCell>
        <mxCell id="UDzx1LGtE0kOY_WkI4bh-7" value="" style="edgeStyle=orthogonalEdgeStyle;rounded=0;orthogonalLoop=1;jettySize=auto;html=1;fontSize=14;" edge="1" parent="1" source="UDzx1LGtE0kOY_WkI4bh-4" target="UDzx1LGtE0kOY_WkI4bh-6">
          <mxGeometry relative="1" as="geometry" />
        </mxCell>
        <mxCell id="UDzx1LGtE0kOY_WkI4bh-4" value="return char_code == &#39;Y&#39;" style="rounded=1;whiteSpace=wrap;html=1;absoluteArcSize=1;arcSize=14;strokeWidth=2;fontSize=14;" vertex="1" parent="1">
          <mxGeometry x="310" y="260" width="120" height="50" as="geometry" />
        </mxCell>
        <mxCell id="UDzx1LGtE0kOY_WkI4bh-6" value="END" style="strokeWidth=2;html=1;shape=mxgraph.flowchart.terminator;whiteSpace=wrap;fontSize=14;" vertex="1" parent="1">
          <mxGeometry x="315" y="350" width="110" height="50" as="geometry" />
        </mxCell>
        <mxCell id="UDzx1LGtE0kOY_WkI4bh-8" value="&lt;font style=&quot;font-size: 23px;&quot;&gt;re_run FUNCTION&lt;/font&gt;" style="text;html=1;align=center;verticalAlign=middle;resizable=0;points=[];autosize=1;strokeColor=none;fillColor=none;" vertex="1" parent="1">
          <mxGeometry x="40" y="40" width="220" height="40" as="geometry" />
        </mxCell>
      </root>
    </mxGraphModel>
  </diagram>
</mxfile>
